<svg xmlns="http://www.w3.org/2000/svg" viewBox="0 0 231.33 200.16"><defs><style>.cls-1{fill:#d98262;}.cls-2{fill:#ecab93;}.cls-14,.cls-3{fill:#232a43;}.cls-4{fill:#f26f4a;}.cls-5{fill:#e66946;}.cls-6{fill:#6191f2;}.cls-7{fill:#8c523b;}.cls-10,.cls-8{opacity:0.3;}.cls-9{fill:#f2c8c3;}.cls-10,.cls-13{fill:#f2899c;}.cls-11{fill:#753c25;}.cls-12{fill:#4a2617;}.cls-14{opacity:0.1;}</style></defs><title>Children</title><g id="Layer_2" data-name="Layer 2"><g id="Layer_1-2" data-name="Layer 1"><g id="Children"><g id="Girl2"><polygon class="cls-1" points="187.04 51.34 192.88 49.62 192.5 35.94 188.42 36.21 187.04 51.34"/><path class="cls-2" d="M185.93,20.49l9.58.17,3.22,6.67c-.09,6-1.08,15.81-7.87,16.14-.14,0-.81,0-1,0-6.6,0-7.7-10.13-7.79-16.13Z"/><path class="cls-2" d="M184.37,51.72c0-3.21-10.24-10.27-14.85-16,0,0,3.16-7.75,3.44-22.58l-4.74,2.15c-1.71,7.22-6.63,16.06-3.74,22.87,0,0,8.44,15.27,16.79,18.94S184.36,53.77,184.37,51.72Z"/><path class="cls-2" d="M199.23,50.63c-.63-3.15,8.09-12,11.53-18.5,0,0-2.33-5.7-5.43-20.21l2.81-.09c3.06,6.76,9.58,14.49,8,21.73,0,0-5.36,16.61-12.85,21.8S199.63,52.64,199.23,50.63Z"/><path class="cls-3" d="M209.06,143.62s4.52,6.33,5.87,8.13,3.16,9,5,7.23,1.81-5.87-.9-9.94-2.26-6.32-2.26-6.32a12.3,12.3,0,0,0-5.87-1.35"/><path class="cls-3" d="M220.87,139.47s3.61,6.88,4.71,8.86,1.9,9.38,3.93,7.84,2.59-5.57.46-10-1.37-6.57-1.37-6.57a12.17,12.17,0,0,0-5.63-2.15"/><path class="cls-4" d="M184.67,84.9s-1.36,26.2,5,33.88c0,0,17.61,25.29,20.32,26.65,0,0,4.07-2.71,3.16-4.52s-9.93-22.13-14.9-23c0,0-1.36-30.27-4.52-35.69"/><path class="cls-5" d="M198.22,117.88s-1.36-30.27-4.52-35.69l-1.35,3.62c.07,4.43-1.82,27.86,4.4,34.48,0,0,5.17,5.33,10.56,10.64C204.44,124.78,200.88,118.36,198.22,117.88Z"/><path class="cls-4" d="M192.48,82.72s.17,30.32,7,37.57c0,0,19.42,20,22.21,21.18,0,0,3.07-1.56,2.05-3.31s-12.35-22.87-17.37-23.45c0,0,5.42-36.58-5-35.28"/><path class="cls-3" d="M201.14,58s7-6.63,7.91-10.24c0,0-3.9-3-3-7-8.07,4.55-15.53,5.12-24.48,2.48-1.89-.56-4.27-1.8-6.49-2.5.43.13-3.63,6.6-3.63,6.87,0,3,3.21,4,4.82,6.44,4.79,7.37,7.16,19,7.95,27.71l.45,5s20.78-4.52,21.23-6.77a76.28,76.28,0,0,0-4.52-9C199.12,67.29,199.78,64.31,201.14,58Z"/><path class="cls-6" d="M195.82,27.77c3.14,3.94,2.86,8.4,1,12.8,13,.9,9.21-27.66-5.51-26.81-3.92.22-8.76,4-5.78,7.81C187.68,24.37,193.18,24.45,195.82,27.77Z"/><path class="cls-6" d="M188.11,16.57c-6.68.33-11.55,5-9.66,12.46a44.11,44.11,0,0,1,1.7,7.56,13.34,13.34,0,0,1-.35,4.11,13.72,13.72,0,0,0,3.07.93,8,8,0,0,1,1-1c1.68-1.34-3.6-11.84.73-15.65,2.79-2.45,7.39-3.55,10.93-4.37"/><path class="cls-2" d="M168.22,15.33s-3.84-9-.59-10.86c0,0,7-3.26,6.05,0l-2.32,2.79s-.47,1.86.93,2.33.41,2.52.67,3.59-2.54,5.25-2.54,5.25"/><path class="cls-2" d="M208.87,14.64s3.84-9,.59-10.87c0,0-7-3.25-6.05,0l2.32,2.79s.47,1.87-.93,2.33-.41,2.52-.67,3.59,2.53,5.25,2.53,5.25"/></g><g id="Boy"><path class="cls-7" d="M102.57,22.12S106,19,106.1,16l-1.72-.51s1.72-4.48.23-5.2-8.56-2.55-5.37,13.64"/><path class="cls-3" d="M116,178.28c.06.05,2.46,3.05,2.46,3.84l-2.17,5c.08,3.74.55,6.64-2.19,9.51-.79.82-6.17,5.61-6.64,2.39,0,0,.24-3.34.56-6.27s2.76-6,2.76-6l-.1-7.35"/><path class="cls-3" d="M128.89,169.15c0,.06-2.08,3.32-2,4.11l2.75,4.74c.36,3.73.24,6.67,3.3,9.19.87.72,6.79,4.84,6.88,1.59,0,0-.64-3.29-1.3-6.16s-3.45-5.67-3.45-5.67l-.77-7.31"/><path class="cls-6" d="M104.36,93.21s5.14-6.24,11.38-1.47a21.86,21.86,0,0,1,6.59,8.55c1.38-2.12,3-2.78,4.8-.47,0,0,13.78,25.83,11.57,36.84l-4.85,35s-5.17,5.29-6.21-1.28c-2.27-14.32-1.7-24.3.5-30.18,1.88-5-8.28-14.36-10.18-19.8,0,5.69,1.63,15.28-1.38,25.71,4.86,21,.93,21.42-.51,34.33,0,0-4.93,1.1-6,0,0,0-4.49-25.72-3-32.69C107,147.73,102.89,108.64,104.36,93.21Z"/><g class="cls-8"><path class="cls-3" d="M128.14,140.18c-2.2,5.88-2.77,15.86-.5,30.18.51,3.19,2,3.58,3.37,3.14-2-8.87-2.66-27-2.82-33.48C128.17,140.07,128.16,140.13,128.14,140.18Z"/><path class="cls-3" d="M116.07,180.42c1.44-12.91,5.37-13.29.51-34.33,3-10.43,1.4-20,1.38-25.71,0,0-2.39,12.26-3.39,19.8s.5,12.07.5,12.07c3.64,12.95-.86,24.6-2.75,28.65A23.23,23.23,0,0,0,116.07,180.42Z"/></g><path class="cls-7" d="M143.44,110.61s.28,4.4,2.46,6.33l1.42-1s2.31,4,3.74,3.29,7.05-4.86-7-12.22"/><path class="cls-9" d="M128.18,97.59l2,2.49,2.27,7.92s-26.89,7.61-28.29,3.77c0,0-2.48-26.4-2.83-33s-3.14-18.5-3.14-18.5-3.49-34.2,0-40.83l6.28,1.74s-.35,18.85.7,24.08,1.4,10.48,4.19,19.55c0,0,17.8.35,20.59,4.54s10,22.84,10,22.84,6.37,11.36,7.41,16.25c0,0-1.39,3.84-3.49,3.49S134.46,101.78,131,94.1s-3.14-7.68-3.14-6.63"/><path class="cls-10" d="M119.09,72.29a19,19,0,0,0,6.34-5.48c-5.27-1.56-13.22-1.93-15.48-2C111.53,69.22,114.31,72.46,119.09,72.29Z"/><path class="cls-10" d="M97.68,55c.27,3.21.48,5.27.48,5.27s2.79,11.87,3.14,18.5c.13,2.38.53,7.29,1,12.62.69-5.14,2.22-18.66.21-25.1A83.7,83.7,0,0,0,97.68,55Z"/><path class="cls-10" d="M132.42,108l-2.27-7.92-2-2.49-.35-10.12c0-1-.35-1,3.14,6.63s10.82,17.45,12.91,17.8c1.14.19,2.07-.85,2.68-1.85-6.39-5.78-14.39-22.67-14.39-22.67l-7.55-7,1.51,14.58-4.52,8,5.52-3.15c3.21-.31,3.7,5.05,3.68,8.62Z"/><path class="cls-11" d="M125.74,57.67c1.09-1.21,2.22.93,2.21,2.07,0,1.82-3.56,4.08-4.77,2.17"/><path class="cls-11" d="M109.25,57.21c-1-1.25-2.25.84-2.29,2,0,1.81,3.41,4.2,4.7,2.34"/><path class="cls-7" d="M107.86,51.14c-.29-5.12,7.25-7.9,10.52-8h0c2.17.17,9.32,3.25,8.83,8.35,0,0,.19,17.34-10.71,17.49v.08l0-.42h0l0,.34C107.51,68.33,107.86,51.14,107.86,51.14Z"/><path class="cls-3" d="M126,48.32s-2,4.36-18.27,8.16c0,0-3.32-3.26-.33-6.25,0,0-1-5.17,1.66-6.53,0,0,10-3.81,17.93.27C127,44,128.29,47.78,126,48.32Z"/><path class="cls-3" d="M126.63,45.33s6,2.72,0,12.24c0,0-3.32-4.62-2.66-8.43"/><path class="cls-7" d="M104.3,20.22a37.58,37.58,0,0,0,3-4.23c1.52-3.16-3,.18-3,.18l-.8,2.94C104.13,19.19,103.84,20,104.3,20.22Z"/></g><g id="Girl"><path class="cls-7" d="M38.53,15.18S43.27,12,44,8.27l-2-.94S44.91,2.13,43.21,1,33.14-3.73,34.09,16.79"/><path class="cls-6" d="M37.2,128.89s-7.34-1.25-7.56-.37-2.89,14.77.55,19c0,0,5.32-.37,5.08-7,0,0-.73-6.9,1.86-8.31"/><path class="cls-6" d="M16.53,101.47s-5.26-5.28-5.94-4.69S-.35,107.13,0,112.55c0,0,4.54,2.79,8.17-2.72,0,0,3.42-6,6.34-5.69"/><path class="cls-7" d="M74.77,57.79s-.7-4.34,1-6.7l1.59.64s1.37-4.39,2.91-4,7.94,3.17-4.07,13.44"/><path class="cls-12" d="M70.31,32S67.68,62.64,51.88,56.57c-1.61-.62-15-2.24-19.23-5.3S21.21,41,13.53,48.51c0,0,.34-6.3,10.13-6.8,0,0-1.77-2.75-4.74-2.69,0,0,4.41-5,11.87-.24S42,19.42,52.93,23.71"/><path class="cls-11" d="M63.24,41.67a2.14,2.14,0,0,1,.42,3.07c-1.33,1.74-4.13.24-4.13.24"/><path class="cls-11" d="M49.79,36.62a2.15,2.15,0,0,0-2.34,2c-.14,2.19,2.95,2.9,2.95,2.9"/><polygon class="cls-11" points="47.11 53.8 53.02 54.23 57.35 41.62 53.54 40.48 47.11 53.8"/><path class="cls-7" d="M56.65,25.29l8.68,3.43L66,35.9c-2.13,5.44-6.39,14.05-12.69,12a9.14,9.14,0,0,1-.87-.33c-6-2.26-3.55-11.87-1.57-17.37Z"/><path class="cls-12" d="M49.7,25.09c11.57-9.5,20.24,3.48,20.61,6.86s-2.09,6.42-2.09,6.42c-4.07.06-9.72-2-14.06-3.94l.15-4-1.66,3.32c-2.91-1.36-4.94-2.49-4.94-2.49C47.44,28.63,49.7,25.09,49.7,25.09Z"/><path class="cls-9" d="M13.46,101.72a46.84,46.84,0,0,1,24,1.77C36,92.62,34.1,69.92,43.15,60.58l9.32,2s4.88,11.67,6.15,18.59c1,5.53,8.13,19.59,9,28.67l.14.06c0,.4,0,.8-.05,1.19a11.2,11.2,0,0,1-.31,3.11c-.39,2.58-1.11,4.7-2.36,6,0,0-14.41,12.62-29.24,13.23l-1.41-4.24s14.44-10.09,21.17-13.7c-.43.11-.85.24-1.27.38,1-1.1.35-2.13,1.14-2.86,0,0-5-15.11-5.46-18.13,0,0,.12,16.27-3.39,19.54a6.23,6.23,0,0,0-1,.09,3.12,3.12,0,0,1-1.49.93S14.64,110,11.46,104.57C11.46,104.57,11.24,102.14,13.46,101.72Z"/><g class="cls-8"><path class="cls-13" d="M49.89,92a4.49,4.49,0,0,1-.06-.48S49.85,91.7,49.89,92Z"/></g><path class="cls-6" d="M36.71,57.78a17,17,0,0,0,.64-4.33l.46-1a4.25,4.25,0,0,0-1.23-5.3c4.78-1.85,6.29-1.59,6.29-1.59s11.88,3.14,16.79,8S69.81,67.43,69.81,67.43l5-9.64s3.46-2.24,4.41.42-4.67,19.29-7.84,21c0,0-7.91-2.85-12.14-15,0,0-1.31,7.24.07,13.33s3.94,9.12,1.75,9.7-8.16-10.42-24.26-3.77c-3.84,1.59-.33-12.94-.6-17.63A24.72,24.72,0,0,1,37,57.62Z"/><path class="cls-14" d="M36.71,57.78a19.8,19.8,0,0,0,.5-2.43c.91-.5,1.49-.84,1.49-.84L39.12,60s-1,10.8-.58,16.66,8,2.8,8,2.8l-3.45,1.4-.59.85a30.22,30.22,0,0,0-5.77,1.76c-3.84,1.59-.33-12.94-.6-17.63A24.72,24.72,0,0,1,37,57.62Z"/><path class="cls-6" d="M34.34,11.82s4.9,1.84,4.41,3.08-3,14.23-4.26,16.44c0,0,2.35,4.7,2.53,5.05,1.89,3.75,4.33,4.7,6.5,11.2.38,1.14-7,6.79-6.31,7.76-1.11-1.52-6.12-8.49-9.26-21.3C28,34.05,23.54,28.68,34.34,11.82Z"/><path class="cls-10" d="M45.32,110.43c1.81-2.89,3.25-18.78,3.25-18.78L55.8,92l-2.89,2.53,4,16.25L55.43,113s-5-15.11-5.46-18.13c0,0,.12,16.27-3.39,19.54a6.23,6.23,0,0,0-1,.09,3.12,3.12,0,0,1-1.49.93S14.64,110,11.46,104.57a3.4,3.4,0,0,1,.31-1.6C33.54,111.38,43.62,113.16,45.32,110.43Z"/><path class="cls-7" d="M43.75,5.57a40.45,40.45,0,0,0-3.24,4.28c-1.64,3.22,3.06-.11,3.06-.11l.9-3C43.91,6.64,44.23,5.85,43.75,5.57Z"/></g></g></g></g></svg>